<?xml version="1.0" encoding="UTF-8"?>
<svg version="1.1" viewBox="0 0 3633 3633" xmlns="http://www.w3.org/2000/svg">
<path d="m1749.5 0.668c-132.99 5.257-256 22.91-382 54.823-380.37 96.338-722.4 317.03-969.4 625.51-229.08 286.09-365.01 629.7-393.03 993.5-4.246 55.12-4.572 65.362-4.545 143 0.027 79.597 0.644 96.862 5.518 154.5 30.728 363.36 170.49 708.92 401.01 991.5 70.316 86.196 151.09 168.53 235.95 240.51 89.015 75.506 188.32 144.21 291.63 201.77 227.35 126.67 481.06 202.84 741.87 222.7 43.928 3.346 54.621 3.711 123.5 4.212 74.818 0.544 98.981-0.061 150-3.758 282.49-20.469 554.84-106.27 797.41-251.21 162.96-97.374 312.06-221.8 436.99-364.67 161.78-185 283.36-398.16 359.4-630.06 36.255-110.57 61.792-224.81 76.117-340.5 5.202-42.009 8.841-84.067 12.244-141.5 1.647-27.793 2.291-133.1 0.921-150.5-0.606-7.7-1.556-23.225-2.112-34.5-3.545-71.991-13.237-154.12-27.081-229.5-59.83-325.75-208.14-628.85-429.36-877.5-50.585-56.856-116.5-121.62-173.82-170.79-119-102.07-253.61-190.71-388.71-255.97-229.2-110.7-464.4-169.9-720-181.23-19.597-0.868-122.96-1.121-142.5-0.349m19.5 200.01c-40.509 1.274-90.247 4.722-128.5 8.909-399.58 43.737-765.34 233.07-1033.7 535.11-135.58 152.57-241.53 330.86-311.15 523.6-79.641 220.48-110.15 458.36-89.045 694.21 16.167 180.63 64.263 362.42 138.8 524.61 16.937 36.856 17.593 38.119 19.441 37.411 2.155-0.825 741.38-427.49 742.63-428.63 1.057-0.964 1.036-1.036-7.262-23.893-40.963-112.84-53.689-241.37-36.086-364.5 16.449-115.06 58.487-222.93 124.71-320 46.322-67.902 104.46-128.7 171.04-178.86 72.917-54.939 157.74-97.404 244.7-122.5 160.89-46.439 335.81-38.442 489.97 22.402 108.19 42.699 206.56 110.37 283.42 194.96 11.498 12.655 26.104 29.581 31.729 36.769l2.15 2.748 371.85-214.64c204.52-118.05 372.17-214.93 372.57-215.28 0.806-0.719-16.951-26.644-36.028-52.599-172.01-234.04-405.4-419.02-671.19-531.97-201.13-85.476-420.06-129.58-637.01-128.32-18.975 0.11-38.325 0.32-43 0.467m1128.5 1122.5c-220.86 127.55-371.87 215.34-371.67 216.08 0.181 0.678 3.185 9.109 6.676 18.734 23.312 64.272 37.551 131.44 43.086 203.25 1.958 25.401 2.215 80.395 0.489 104.75-6.566 92.652-27.313 177.16-63.597 259.05-52.343 118.14-135.46 222.43-239.6 300.67-108.58 81.562-237.41 132.5-372.4 147.23-52.942 5.778-109.92 5.944-163.48 0.477-152.39-15.556-299.1-78.797-416-179.33-32.58-28.018-72.073-68.707-96.519-99.444l-3.019-3.796-371.98 214.72c-204.59 118.1-372.14 214.85-372.33 215.01-0.624 0.508 26.077 38.229 44.536 62.917 227.07 303.7 552.68 518.08 919.39 605.34 305.97 72.807 629.53 54.784 923.63-51.448 206.65-74.643 393.94-189.3 555.29-339.94 21.205-19.797 66.742-65.558 85.061-85.479 146.91-159.76 259.08-344.46 332.33-547.26 83.901-232.27 113.07-483.23 85.04-731.71-17.666-156.62-58.995-311.97-121.45-456.5-8.281-19.163-26.05-57.96-29.576-64.576l-1.906-3.576-372 214.84m-1108.7-51.199c-101.97 5.781-197.98 38.244-280.32 94.779-45.327 31.125-88.684 71.973-122.21 115.14-98.123 126.34-135.66 287.14-103.78 444.59 30.794 152.08 127.52 285.57 263.42 363.53 114.32 65.583 249.64 87.253 380.07 60.868 78.693-15.919 154.42-50.129 219.14-99.001 38.981-29.436 77.327-67.782 106.76-106.76 85.994-113.88 123.52-255.45 105.54-398.14-17.102-135.68-85.941-260.98-191.94-349.37-85.373-71.19-190.03-114.38-300.66-124.08-21.277-1.866-57.493-2.608-76.024-1.557m-1788.3 545.01c0 33.825 0.126 47.662 0.279 30.75 0.154-16.912 0.154-44.588 0-61.5-0.153-16.912-0.279-3.075-0.279 30.75" fill="#343334" fill-rule="evenodd"/>
<path d="m1769 200.67c-40.509 1.274-90.247 4.722-128.5 8.909-399.58 43.737-765.34 233.07-1033.7 535.11-135.58 152.57-241.53 330.86-311.15 523.6-79.641 220.48-110.15 458.36-89.045 694.21 16.167 180.63 64.263 362.42 138.8 524.61 16.937 36.856 17.593 38.119 19.441 37.411 2.155-0.825 741.38-427.49 742.63-428.63 1.057-0.964 1.036-1.036-7.262-23.893-40.963-112.84-53.689-241.37-36.086-364.5 16.449-115.06 58.487-222.93 124.71-320 46.322-67.902 104.46-128.7 171.04-178.86 72.917-54.939 157.74-97.404 244.7-122.5 160.89-46.439 335.81-38.442 489.97 22.402 108.19 42.699 206.56 110.37 283.42 194.96 11.498 12.655 26.104 29.581 31.729 36.769l2.15 2.748 371.85-214.64c204.52-118.05 372.17-214.93 372.57-215.28 0.806-0.719-16.951-26.644-36.028-52.599-172.01-234.04-405.4-419.02-671.19-531.97-201.13-85.476-420.06-129.58-637.01-128.32-18.975 0.11-38.325 0.32-43 0.467" fill="#eb1c24" fill-rule="evenodd"/>
</svg>
